<?xml version="1.0" encoding="utf-8"?>
<!-- Generator: Adobe Illustrator 25.2.0, SVG Export Plug-In . SVG Version: 6.00 Build 0)  -->
<svg version="1.1" id="Capa_1" xmlns:xodm="http://www.corel.com/coreldraw/odm/2003"
	 xmlns="http://www.w3.org/2000/svg" xmlns:xlink="http://www.w3.org/1999/xlink" x="0px" y="0px" viewBox="0 0 308.1 107.5"
	 style="enable-background:new 0 0 308.1 107.5;" xml:space="preserve">
<style type="text/css">
	.st0{fill-rule:evenodd;clip-rule:evenodd;fill:#FFFFFF;}
	.st1{fill:#FFFFFF;}
</style>
<g id="Capa_x0020_1">
	<path class="st0" d="M111.9,44.1c-0.2,0-0.4-0.1-0.6-0.1c-2.2-0.6-4.4-1.6-5.7-3.5c-0.5-0.7-0.9-1.5-1.2-2.3
		c-0.3-0.8-0.4-1.7-0.4-2.6c0-2.5,0.7-4.8,2.4-6.6c1.7-1.8,3.9-2.5,6.3-2.5c2.3,0,4.3,0.7,5.9,2.3c1.7,1.7,2.3,3.9,2.5,6.2l0,0.4
		h-4.9l0-0.4c-0.1-1-0.4-1.9-1.1-2.7c-0.7-0.7-1.5-1-2.5-1c-1,0-1.9,0.3-2.6,1.1c-0.7,0.8-1,1.8-1,2.9c0,0.4,0.1,0.8,0.2,1.2
		c0.1,0.4,0.3,0.7,0.6,1c0.7,0.9,2.6,1.4,3.6,1.7c0.7,0.2,1.4,0.4,2.1,0.6c1.9,0.7,3.6,1.8,4.7,3.4c1.1,1.6,1.6,3.4,1.6,5.4
		c0,2.7-0.7,5.3-2.6,7.4c-1.8,2-4.2,2.8-6.9,2.8c-2.6,0-4.8-0.8-6.6-2.7c-1.8-1.9-2.6-4.4-2.6-7.1l0-0.4h4.7l0,0.4
		c0.1,1.3,0.4,2.5,1.3,3.5c0.8,0.9,1.8,1.3,3,1.3c1.3,0,2.4-0.4,3.3-1.3c0.9-0.9,1.2-2.2,1.2-3.5c0-1-0.2-2.1-0.9-2.9
		C115.1,45.2,113.1,44.5,111.9,44.1L111.9,44.1z M131.7,49.3l-3.4,8.8h-5.5L135,27h4.8L152,58.2h-5.7l-3.3-8.8H131.7L131.7,49.3z
		 M174,49l-0.2-22h5.2v31.2h-4.8l-14.6-22.7l0.3,22.7h-5.2V27h5.2L174,49L174,49z M188.7,31.9H183V27h16.6v4.9h-5.7v26.3h-5.2
		L188.7,31.9L188.7,31.9z M208.8,58.2h-5.2V27h5.2V58.2z M220,49.3l-3.4,8.8H211L223.2,27h4.8l12.2,31.2h-5.7l-3.3-8.8H220z
		 M266.4,47.1h-13.6V42h19.7l0,0.4c-0.2,4.5-1.6,8.6-4.7,11.8c-3,3.1-6.9,4.5-11.2,4.5c-2.3,0-4.4-0.4-6.5-1.4
		c-2.1-0.9-3.8-2.3-5.3-4c-1.3-1.5-2.3-3.2-3-5c-0.7-1.9-1-4-1-6c0-2.1,0.4-4.2,1.2-6.2c0.8-2,2.1-3.8,3.6-5.3
		c1.5-1.5,3.2-2.6,5.1-3.4c2-0.8,4.1-1.1,6.2-1.1c3,0,5.8,0.7,8.3,2.2c2.5,1.5,4.2,3.7,5.4,6.3l0.3,0.6h-6.3l-0.1-0.2
		c-0.9-1.2-2.1-2.2-3.5-2.8c-1.4-0.7-2.9-0.9-4.5-0.9c-1.4,0-2.7,0.3-3.9,0.8c-1.3,0.5-2.4,1.3-3.3,2.3c-1,1-1.8,2.3-2.4,3.6
		c-0.6,1.3-0.9,2.7-0.9,4.2c0,1.5,0.2,2.9,0.8,4.3c0.5,1.3,1.2,2.5,2.2,3.5c1,1,2.2,1.9,3.5,2.4c1.3,0.6,2.6,0.9,4,0.9
		c2.1,0,4.1-0.5,5.9-1.8C264.2,50.6,265.5,49,266.4,47.1L266.4,47.1z M276.2,42.4c0-2.1,0.4-4.2,1.2-6.2c0.8-2,2.1-3.8,3.6-5.3
		c1.5-1.4,3.1-2.6,5-3.4c1.9-0.8,3.9-1.1,6-1.1c2.1,0,4.1,0.4,6.1,1.1c1.9,0.8,3.6,2,5.1,3.4c1.5,1.5,2.8,3.2,3.6,5.2
		c0.8,2,1.2,4.1,1.2,6.2c0,2.1-0.3,4.1-1,6.1c-0.7,1.9-1.7,3.6-3.1,5c-1.5,1.7-3.3,3-5.4,3.9c-2.1,0.9-4.2,1.3-6.5,1.3
		c-2.2,0-4.4-0.4-6.5-1.4c-2.1-0.9-3.8-2.3-5.3-4c-1.3-1.5-2.3-3.2-3-5C276.6,46.5,276.2,44.5,276.2,42.4L276.2,42.4z M141.1,44.2
		l-3.7-10l-3.8,10H141.1L141.1,44.2z M229.3,44.2l-3.7-10l-3.8,10H229.3L229.3,44.2z M281.6,42.4c0,1.5,0.2,3,0.8,4.3
		c0.5,1.3,1.2,2.5,2.2,3.5c1,1,2.2,1.9,3.5,2.4c1.3,0.6,2.6,0.9,4,0.9c3,0,5.5-1,7.6-3.2c2.1-2.2,3.1-5,3.1-8c0-1.3-0.2-2.6-0.7-3.9
		c-0.5-1.3-1.2-2.4-2.1-3.4c-1-1.1-2.2-2-3.6-2.7c-1.3-0.6-2.8-0.8-4.2-0.8c-1.4,0-2.7,0.3-3.9,0.8c-1.3,0.5-2.4,1.3-3.3,2.3
		c-1,1-1.8,2.3-2.4,3.6C281.9,39.6,281.6,41,281.6,42.4L281.6,42.4z"/>
	<path class="st1" d="M196.7,64.6l-1.9,1.5c-1-1.4-2.3-2.4-3.8-3.1c-1.5-0.7-3.1-1.1-4.8-1.1c-1.9,0-3.7,0.5-5.3,1.4
		c-1.6,0.9-2.9,2.2-3.8,3.7c-0.9,1.5-1.3,3.3-1.3,5.2c0,2.9,1,5.4,3,7.3c2,2,4.5,2.9,7.6,2.9c3.4,0,6.2-1.3,8.4-3.9l1.9,1.4
		c-1.2,1.5-2.7,2.7-4.5,3.5c-1.8,0.8-3.8,1.2-6,1.2c-4.2,0-7.5-1.4-9.9-4.2c-2-2.4-3.1-5.2-3.1-8.6c0-3.5,1.2-6.5,3.7-8.9
		c2.5-2.4,5.6-3.6,9.3-3.6c2.2,0,4.3,0.4,6.1,1.3C194.1,61.8,195.5,63.1,196.7,64.6L196.7,64.6z M202.6,60.2h2.4v24h-2.4V60.2z
		 M212.1,60.2h2.4v14.5c0,1.7,0,2.8,0.1,3.2c0.1,0.9,0.4,1.7,0.8,2.4c0.4,0.6,1.1,1.2,2,1.6c0.9,0.4,1.8,0.6,2.7,0.6
		c0.8,0,1.6-0.2,2.3-0.5c0.7-0.3,1.3-0.8,1.8-1.4c0.5-0.6,0.8-1.3,1.1-2.2c0.2-0.6,0.2-1.9,0.2-3.8V60.2h2.4v14.5
		c0,2.1-0.2,3.9-0.6,5.2c-0.4,1.3-1.3,2.5-2.5,3.5c-1.3,1-2.8,1.5-4.6,1.5c-1.9,0-3.6-0.5-5-1.4c-1.4-0.9-2.3-2.1-2.8-3.7
		c-0.3-0.9-0.4-2.6-0.4-5.1L212.1,60.2L212.1,60.2z M235.3,84.2v-24h5c3.6,0,6.2,0.3,7.8,0.9c2.3,0.8,4.2,2.2,5.5,4.2
		c1.3,2,2,4.4,2,7.2c0,2.4-0.5,4.5-1.6,6.3c-1,1.8-2.4,3.2-4,4.1c-1.7,0.9-4,1.3-7,1.3H235.3L235.3,84.2z M237.6,81.9h2.8
		c3.3,0,5.6-0.2,6.9-0.6c1.8-0.6,3.2-1.6,4.3-3.2c1-1.5,1.5-3.4,1.5-5.6c0-2.3-0.6-4.3-1.7-5.9c-1.1-1.6-2.7-2.8-4.7-3.4
		c-1.5-0.5-4-0.7-7.4-0.7h-1.7L237.6,81.9L237.6,81.9z M271.5,60.2l11.2,24h-2.6l-3.8-7.9h-10.4l-3.7,7.9h-2.7l11.3-24L271.5,60.2
		L271.5,60.2z M271.2,65.2L267,74h8.2L271.2,65.2L271.2,65.2z M287.8,84.2v-24h5c3.6,0,6.2,0.3,7.8,0.9c2.3,0.8,4.2,2.2,5.5,4.2
		c1.3,2,2,4.4,2,7.2c0,2.4-0.5,4.5-1.6,6.3c-1,1.8-2.4,3.2-4,4.1c-1.7,0.9-4,1.3-7,1.3H287.8L287.8,84.2z M290.1,81.9h2.8
		c3.3,0,5.6-0.2,6.9-0.6c1.8-0.6,3.2-1.6,4.3-3.2c1-1.5,1.5-3.4,1.5-5.6c0-2.3-0.6-4.3-1.7-5.9c-1.1-1.6-2.7-2.8-4.7-3.4
		c-1.5-0.5-4-0.7-7.4-0.7h-1.7L290.1,81.9L290.1,81.9z"/>
	<path class="st1" d="M103.7,88.1h1.8l2.2,6.7l2.3-6.7h1.8l1.6,9.7h-1.8l-1-6.1l-2,6.1H107l-2-6.1l-1.1,6.1h-1.8
		C102.1,97.8,103.7,88.1,103.7,88.1z M115.1,88.1h1.8v6.2c0,0.5,0,0.9,0.1,1.1c0.1,0.2,0.2,0.4,0.5,0.5c0.2,0.1,0.5,0.2,0.8,0.2
		c0.3,0,0.6-0.1,0.8-0.2c0.2-0.1,0.4-0.3,0.5-0.6c0.1-0.2,0.1-0.7,0.1-1.3v-6h1.8v5.8c0,1-0.1,1.6-0.2,2c-0.1,0.4-0.3,0.7-0.6,1.1
		c-0.3,0.3-0.7,0.6-1.1,0.8c-0.4,0.2-0.9,0.3-1.4,0.3c-0.7,0-1.3-0.2-1.8-0.5c-0.5-0.3-0.9-0.7-1.1-1.2c-0.2-0.5-0.3-1.3-0.3-2.5
		V88.1L115.1,88.1z M124,88.1h1.7l4.2,6.4v-6.4h1.8v9.7H130l-4.1-6.3v6.3H124L124,88.1L124,88.1z M134,88.1h1.8v9.7H134V88.1z
		 M147,89.8l-1.3,1.2c-0.9-0.9-1.9-1.4-3-1.4c-0.9,0-1.7,0.3-2.3,0.9c-0.6,0.6-0.9,1.4-0.9,2.3c0,0.6,0.1,1.2,0.4,1.7
		c0.3,0.5,0.7,0.9,1.2,1.2c0.5,0.3,1.1,0.4,1.7,0.4c0.5,0,1-0.1,1.5-0.3c0.4-0.2,0.9-0.6,1.5-1.1l1.2,1.3c-0.7,0.7-1.4,1.2-2,1.4
		c-0.6,0.3-1.4,0.4-2.2,0.4c-1.5,0-2.7-0.5-3.7-1.4c-1-1-1.4-2.2-1.4-3.7c0-1,0.2-1.8,0.7-2.6c0.4-0.7,1.1-1.3,1.9-1.8
		c0.8-0.5,1.7-0.7,2.6-0.7c0.8,0,1.6,0.2,2.3,0.5C145.8,88.7,146.5,89.2,147,89.8L147,89.8z M148.7,88.1h1.8v9.7h-1.8V88.1z
		 M152.8,88.1h2c1.1,0,1.8,0.1,2.3,0.3c0.5,0.2,0.8,0.5,1.1,0.9c0.3,0.4,0.4,1,0.4,1.6c0,0.7-0.2,1.2-0.5,1.7
		c-0.4,0.4-0.8,0.8-1.4,0.9c-0.4,0.1-1,0.1-1.9,0.1v4.1h-1.8L152.8,88.1L152.8,88.1z M154.7,91.9h0.6c0.5,0,0.8,0,1-0.1
		c0.2-0.1,0.3-0.2,0.4-0.3c0.1-0.2,0.2-0.3,0.2-0.6c0-0.4-0.1-0.6-0.4-0.8c-0.2-0.1-0.6-0.2-1.2-0.2h-0.5L154.7,91.9L154.7,91.9z
		 M163.6,88.1h1.9l3.7,9.7h-1.9l-0.8-2h-4l-0.8,2h-1.9L163.6,88.1L163.6,88.1z M164.5,90.7l-1.3,3.3h2.6L164.5,90.7z M170.8,88.1
		h1.8V96h2.7v1.7h-4.5L170.8,88.1L170.8,88.1z M176.8,88.1h1.8v9.7h-1.8V88.1z M180.9,88.1h2.2c1.4,0,2.4,0.2,3.1,0.5
		c0.7,0.3,1.2,0.9,1.7,1.7c0.4,0.8,0.7,1.7,0.7,2.7c0,0.7-0.1,1.4-0.4,2c-0.2,0.6-0.6,1.1-1,1.6c-0.4,0.4-0.9,0.7-1.4,0.9
		c-0.5,0.2-1.4,0.2-2.6,0.2h-2.2L180.9,88.1L180.9,88.1z M182.8,89.9V96h0.9c0.8,0,1.4-0.1,1.8-0.3c0.4-0.2,0.7-0.5,0.9-1
		c0.2-0.5,0.4-1,0.4-1.7c0-1-0.3-1.8-0.9-2.4c-0.5-0.5-1.3-0.8-2.5-0.8L182.8,89.9L182.8,89.9z M193.5,88.1h1.9l3.7,9.7h-1.9l-0.8-2
		h-4l-0.8,2h-1.9L193.5,88.1L193.5,88.1z M194.4,90.7l-1.3,3.3h2.6L194.4,90.7z M200.8,88.1h2.2c1.4,0,2.4,0.2,3.1,0.5
		c0.7,0.3,1.2,0.9,1.7,1.7c0.4,0.8,0.7,1.7,0.7,2.7c0,0.7-0.1,1.4-0.4,2c-0.2,0.6-0.6,1.1-1,1.6c-0.4,0.4-0.9,0.7-1.4,0.9
		c-0.5,0.2-1.4,0.2-2.6,0.2h-2.2L200.8,88.1L200.8,88.1z M202.6,89.9V96h0.9c0.8,0,1.4-0.1,1.8-0.3c0.4-0.2,0.7-0.5,0.9-1
		c0.2-0.5,0.4-1,0.4-1.7c0-1-0.3-1.8-0.9-2.4c-0.5-0.5-1.3-0.8-2.5-0.8L202.6,89.9L202.6,89.9z M214.2,88.1h2.2
		c1.4,0,2.4,0.2,3.1,0.5c0.7,0.3,1.2,0.9,1.7,1.7c0.4,0.8,0.7,1.7,0.7,2.7c0,0.7-0.1,1.4-0.4,2c-0.2,0.6-0.6,1.1-1,1.6
		c-0.4,0.4-0.9,0.7-1.4,0.9c-0.5,0.2-1.4,0.2-2.6,0.2h-2.2L214.2,88.1L214.2,88.1z M216,89.9V96h0.9c0.8,0,1.4-0.1,1.8-0.3
		c0.4-0.2,0.7-0.5,0.9-1c0.2-0.5,0.4-1,0.4-1.7c0-1-0.3-1.8-0.9-2.4c-0.5-0.5-1.3-0.8-2.5-0.8L216,89.9L216,89.9z M223.8,88.1h5.3
		v1.8h-3.4v1.7h3.4v1.8h-3.4V96h3.4v1.8h-5.3V88.1z M234.8,88.1h1.8V96h2.7v1.7h-4.5L234.8,88.1L234.8,88.1z M243.9,88.1h1.9
		l3.7,9.7h-1.9l-0.8-2h-4l-0.8,2h-1.9L243.9,88.1L243.9,88.1z M244.8,90.7l-1.3,3.3h2.6L244.8,90.7z M263.7,89.8l-1.3,1.2
		c-0.9-0.9-1.9-1.4-3-1.4c-0.9,0-1.7,0.3-2.3,0.9c-0.6,0.6-0.9,1.4-0.9,2.3c0,0.6,0.1,1.2,0.4,1.7c0.3,0.5,0.7,0.9,1.2,1.2
		c0.5,0.3,1.1,0.4,1.7,0.4c0.5,0,1-0.1,1.5-0.3c0.4-0.2,0.9-0.6,1.5-1.1l1.2,1.3c-0.7,0.7-1.4,1.2-2,1.4c-0.6,0.3-1.4,0.4-2.2,0.4
		c-1.5,0-2.7-0.5-3.7-1.4c-1-1-1.4-2.2-1.4-3.7c0-1,0.2-1.8,0.7-2.6c0.4-0.7,1.1-1.3,1.9-1.8c0.8-0.5,1.7-0.7,2.6-0.7
		c0.8,0,1.6,0.2,2.3,0.5C262.6,88.7,263.2,89.2,263.7,89.8L263.7,89.8z M268.5,88.1h1.9l3.7,9.7h-1.9l-0.8-2h-4l-0.8,2h-1.9
		L268.5,88.1L268.5,88.1z M269.5,90.7l-1.3,3.3h2.6L269.5,90.7L269.5,90.7z M275.7,88.1h2c1.1,0,1.8,0.1,2.3,0.3
		c0.5,0.2,0.8,0.5,1.1,0.9c0.3,0.4,0.4,1,0.4,1.6c0,0.7-0.2,1.2-0.5,1.7c-0.4,0.4-0.8,0.8-1.4,0.9c-0.4,0.1-1,0.1-1.9,0.1v4.1h-1.8
		L275.7,88.1L275.7,88.1z M277.6,91.9h0.6c0.5,0,0.8,0,1-0.1c0.2-0.1,0.3-0.2,0.4-0.3c0.1-0.2,0.2-0.3,0.2-0.6
		c0-0.4-0.1-0.6-0.4-0.8c-0.2-0.1-0.6-0.2-1.2-0.2h-0.5L277.6,91.9L277.6,91.9z M283.4,88.1h1.8v9.7h-1.8V88.1z M286.6,88.1h5.3v1.8
		h-1.8v7.8h-1.9v-7.8h-1.7L286.6,88.1L286.6,88.1z M296.3,88.1h1.9l3.7,9.7H300l-0.8-2h-4l-0.8,2h-1.9L296.3,88.1L296.3,88.1z
		 M297.3,90.7l-1.3,3.3h2.6L297.3,90.7L297.3,90.7z M303.5,88.1h1.8V96h2.7v1.7h-4.5L303.5,88.1L303.5,88.1z"/>
	<path class="st1" d="M48.8,7.2c1.5-0.1,1.5,1.3,1.5,2.6c0.3,1.5,2,1.4,2.9,0.9c0.9-0.5,0.9-1.6,0.8-2.7c-1.1,0-1.9,0.5-2.6,1.3
		c-0.1-2.4-0.8-2.4-2.2-3c0.7-0.4,1.5-0.9,2.2-1.4l0.1-1.5c0.4,0.3,1.4,0.9,2.1,0.9c-0.1-0.6-0.8-1.4-1.2-2c0.8-0.1,1.6-0.2,2.3-0.5
		c0.6-0.3,1.1-0.9,1.6-1.3C57.4-0.4,59,0,60,0.6c-1.2,0.6-2.8,1.3-3.2,2.8c-0.7,2.4,0,4.9-0.8,7.3c-0.6,1.7-2.4,2.9-4.2,2.6
		c-1-0.2-1.9-0.6-2.9-0.8c-1.1,0.2-2.1,0.8-3.3,0.9c-1.1-0.1-2-0.7-3-1c-1.1,0.3-2.1,0.9-3.2,1c-1.1-0.1-2.1-0.7-3.2-0.9
		c-1,0.3-1.9,0.8-3,0.9c-1.2,0-2.2-0.7-3.2-1.1c-1.1,0.5-2.2,1.2-3.4,1.1c-1-0.2-1.9-0.6-2.9-0.9c-2,1.2-4.3,1.2-6.2-0.1
		c-1.1,0.5-2.1,1.1-3.3,1.1c-1.1-0.1-2-0.6-3-1c-1.9,1.1-4.5,1.6-6.2,0C2.8,10,4,6.5,3.3,3.7C3.1,1.9,1.3,1.2,0,0.6
		c0.5-0.5,3-0.9,4.1,0c1,1.1,1.2,1.7,3.7,1.7C7.3,2.9,6.6,4,6.8,4.5c0.7,0.1,1.4-0.6,1.9-1.1c0.1,2,0.7,2.4,2.1,3.1
		c-0.6,0.4-1.3,0.7-1.9,1.1c0.1,0.6,0,1.3,0,1.8C8.1,8.6,7,7.8,6,8c0,1.1,0,1.7,0.6,2.3c0.7,0.8,2.4,1,3,0c0.7-1.1-0.5-3.1,1.7-3.1
		c2.5,0,0.4,3.6,2.8,3.8c2.3,0.2,2.7-2,2.6-2.8c0-0.3-0.2-0.5-0.5-0.4c-1.2,0.4-1.6,0.9-2.7,1.5c-0.1-0.5-0.1-1.2-0.2-1.7
		c-0.6-0.4-1.3-0.6-1.9-1c0.6-0.4,1.3-0.8,1.9-1.2c0-0.4,0-1.2,0-1.6c0.9,0.5,1.8,0.8,2.6,0.9c-0.4-0.8-0.7-1.4-1.1-2.1
		c0.5-0.2,1.1-0.4,1.6-0.5c0.4-0.6,0.7-1.2,1.1-1.8c0.3,0.6,0.6,1.2,0.9,1.8c0.6,0.2,1.2,0.4,1.7,0.6c-0.5,0.8-0.9,1.5-1.4,2.3
		c0.8-0.3,1.7-0.7,2.5-1c0,0.6,0,1.1,0,1.7c0.7,0.3,1.4,0.7,2.1,1c-0.7,0.4-1.4,0.8-2.2,1.2c0,0.4-0.1,1.2-0.1,1.5
		c-0.9-0.6-1.5-0.9-2.4-1.4c-0.4,0.9-0.3,2.1,0.6,2.7c0.9,0.7,2.6,0.7,3.2-0.4c0.3-1.1-0.3-2.8,1.3-2.9c1.8,0,1.1,1.9,1.5,2.9
		c1.3,1.7,3.1,0.6,3.6-0.1c0.5-0.7,0.4-1.9-0.1-2.2c-1.1,0.6-1.7,1-2.8,1.6c0-0.4-0.1-1.3-0.2-1.7c-0.6-0.4-1.3-0.8-1.9-1.2
		c0.6-0.4,1.3-0.7,1.9-1.1c0-0.6,0-1.1,0-1.7c0.9,0.3,1.8,0.7,2.7,1c-0.4-0.7-0.8-1.6-1.2-2.3L29,2.1L30,0.3c0.3,0.6,0.7,1.3,1,1.9
		c0.6,0.2,1.1,0.2,1.7,0.4c-0.5,0.8-1.3,1.7-1.2,2.2C31.8,5,33,4.2,33.8,3.8c0,0.4,0,1.4,0,1.8c0.7,0.3,1.4,0.6,2.1,0.9
		c-0.7,0.4-1.4,0.7-2.1,1.1c-0.1,0.5-0.1,1.1-0.2,1.6c-0.8-0.6-1.5-1-2.3-1.5c-0.3,0.4-0.3,2,0.5,2.8c0.7,0.7,2,0.7,2.7,0.1
		c0.9-1,0.1-3.1,1.7-3.4c1.8-0.1,1.4,2,1.8,3.2c0.5,0.9,2.3,0.9,3,0.2c0.7-0.7,0.8-2.1,0.5-2.7c-1.1,0.5-1.9,0.9-2.9,1.5
		c0-0.4,0-1.1-0.1-1.5c-0.6-0.4-1.4-0.8-2-1.2c0.6-0.4,1.3-0.7,1.9-1.1c0-0.4,0-1.2,0-1.6C39.3,4.2,40.8,5,41,4.7
		c0.1-0.2-0.7-1.4-1-2.2C40.5,2.4,41,2.2,41.6,2c0.3-0.6,0.7-1.2,1-1.8c0.3,0.6,0.8,1.3,1.1,1.9c0.6,0.2,1,0.2,1.6,0.4
		c-0.4,0.8-1.4,1.9-1.1,2.2c0.3,0.3,1.4-0.5,2.2-0.9c0,0.4,0,1.4,0,1.8c0.7,0.3,1.5,0.7,2.2,1l-2.3,1.1l-0.1,1.5
		c-0.8-0.5-1.6-1-2.4-1.5c-0.2,0.8-0.1,2.4,1,3c0.9,0.6,2.2,0.2,2.8-0.8C47.6,9,47.3,7.3,48.8,7.2L48.8,7.2z M5.9,87.8L5.9,87.8
		c-0.1,3.8,2.4,7.1,5.4,9.1c4.6,3.1,10.3,4.1,15.7,4.6c6.1,0.5,12.5,0.4,18.2-2.2c3.8-1.7,7-4.8,8.3-8.8c0.8-2.3,0.6-4.7,0.6-7
		c0-17.2,0-34.4,0-51.6c-16.1,0-32.2,0-48.3,0C5.9,50.6,5.9,69.2,5.9,87.8L5.9,87.8z M0,26.2c20,0,39.9,0,59.9,0
		c0,20.7,0,41.4,0,62.1c0,4.8-2.4,9.5-6,12.6c-5.6,4.7-13.1,6.2-20.2,6.6c-8.1,0.4-16.7-0.2-23.9-4.3C4.2,100,0,93.9,0,87.3
		C0,66.9,0,46.5,0,26.2L0,26.2z M28.7,26.9l0,1.2c-0.4,0.4-0.8,0.7-1.2,1.1c0.3,1.3,1,2.1,2.3,2.1c1.3,0.1,2.1-1.1,2.5-2.1
		c-0.4-0.4-0.9-0.8-1.3-1.2l0-1.1L28.7,26.9L28.7,26.9z M1.7,53.8l0,1.2c-0.4,0.4-0.8,0.7-1.2,1.1c0.3,1.3,1,2.1,2.3,2.1
		c1.3,0.1,2.1-1.1,2.5-2.1c-0.4-0.4-0.9-0.8-1.3-1.2l0-1.1L1.7,53.8L1.7,53.8z M55.9,53.8l0,1.2c-0.4,0.4-0.8,0.7-1.2,1.1
		c0.3,1.3,1,2.1,2.3,2.1c1.3,0.1,2.1-1.1,2.5-2.1c-0.4-0.4-0.9-0.8-1.3-1.2l0-1.1L55.9,53.8L55.9,53.8z M26.6,45.3
		c0.4,0,1.2,0,1.6,0c0,0.3,0,0.8,0,1.1c0.5,0,0.9,0,1.4,0c0-0.3,0-0.8,0-1.1c0.4,0,1.2,0,1.6,0c0,0.3,0,0.8,0,1.1c0.3,0,1,0,1.3,0
		c0-0.3,0-0.8,0-1.1c0.4,0,1.1,0,1.5,0c0,0.7,0,1.4,0,2.2c-2.5,0-4.9,0-7.4,0C26.6,46.7,26.6,46,26.6,45.3L26.6,45.3z M18.9,47.4
		c0.3,0,1,0,1.3,0c0,0.3,0,0.8,0,1c0.3,0,0.9,0,1.2,0c0-0.3,0-0.8,0-1c0.3,0,1,0,1.4,0c0,0.3,0,0.8,0,1c0.3,0,0.8,0,1.1,0
		c0-0.3,0-0.8,0-1c0.3,0,1,0,1.3,0c0,0.7,0,1.4,0,2.1c-2.1,0-4.2,0-6.3,0C18.9,48.7,18.9,48,18.9,47.4L18.9,47.4z M19.6,77.8
		L19.6,77.8c0,0.3,0,0.9,0,1.1c7.4,0,14.8,0,22.2,0c0-0.3,0-0.9,0-1.1C34.4,77.8,27,77.8,19.6,77.8z M33.4,72.4L33.4,72.4
		c0,1.2,0,2.3,0,3.5c2.5,0,4.9,0,7.4,0c-0.6-1.2-1.1-2.3-1.7-3.5C37.3,72.4,35.3,72.4,33.4,72.4L33.4,72.4z M22,72.4L22,72.4
		c-0.6,1.2-1.2,2.4-1.9,3.5c2.6,0,5.1,0,7.7,0c0-1.2,0-2.4,0-3.5C25.9,72.4,23.9,72.4,22,72.4L22,72.4z M22.8,65.6L22.8,65.6
		c-0.2,1.6-0.5,3.3-0.7,4.9h5.3c0.5-0.8,1.6-1.5,3-1.6c1.4,0,2.3,0.4,3.2,1.6l5.4,0c-0.3-1.6-0.6-3.3-1-4.9
		C33,65.6,27.9,65.6,22.8,65.6L22.8,65.6z M22.7,60L22.7,60c0,1.2,0,2.3,0,3.5c5.1,0,10.2,0,15.4,0c0-1.2,0-2.3,0-3.5
		C33,60,27.9,60,22.7,60z M29,55.2L29,55.2c0,0.6,0,1.1,0,1.7c-1,0-2,0-3,0c0-0.4,0-1.3,0-1.7c-1.1,0-2.1,0-3.2,0c0,1.1,0,2.3,0,3.4
		c5.1,0,10.3,0,15.4,0c0-1.1,0-2.3,0-3.4c-1,0-2,0-3.1,0c0,0.4,0,1.3,0,1.7c-1,0-2,0-2.9,0c0-0.6,0-1.1,0-1.7
		C31.1,55.2,30,55.2,29,55.2L29,55.2z M26.7,48.9c2.5,0,4.9,0,7.4,0c0,1.7,0,3.5,0,5.2c0.3,0,1,0,1.4,0c0-1,0-2.1,0-3.1c2,0,4,0,6,0
		c0,1.8,0,3.6,0,5.4c0.5,0,1.1,0,1.6,0c0,0.4,0,1.1,0,1.5c-0.5,0-1,0-1.6,0c-0.1,3.8,0,7.5-0.1,11.3c-0.4,2.8,1.9,4.9,3.1,7.3
		c1,1.4,0.7,3.1,0.8,4.7c-9.8,0-19.5,0-29.3,0c0.1-1.5-0.3-3.1,0.5-4.5c0.8-1.8,2-3.5,2.6-5.5C19.2,66.8,19,62.4,19,58
		c-0.4,0-1.2,0-1.5,0c0-0.4,0-1.2,0-1.5c0.4,0,1.1,0,1.5,0c0-1.8,0-3.6,0-5.4c2.1,0,4.2,0,6.3,0c0,1.1,0,2.2,0,3.4
		c0.4,0,1.1,0,1.5,0C26.7,52.6,26.7,50.8,26.7,48.9L26.7,48.9z M35.3,47.6c0.3,0,1,0,1.3,0c0,0.3,0,0.8,0,1c0.3,0,0.9,0,1.2,0
		c0-0.3,0-0.8,0-1c0.3,0,1,0,1.3,0c0,0.3,0,0.8,0,1c0.3,0,0.8,0,1.1,0c0-0.3,0-0.8,0-1c0.3,0,1,0,1.3,0c0,0.7,0,1.4,0,2.1
		c-2.1,0-4.2,0-6.2,0C35.3,49,35.3,48.3,35.3,47.6z M6.8,84.1c15.5,0,30.9,0,46.4,0c-0.8,1.2-1.5,2.5-2.3,3.7
		c-14.1,0-28.1,0.1-42.2-0.1C8.1,86.6,7.5,85.3,6.8,84.1L6.8,84.1z M10,89.8c13.3,0,26.6,0,39.9,0c-0.4,0.5-0.8,1.1-1.2,1.6
		c-12.6,0-25.2,0-37.8,0C10.6,90.9,10.3,90.4,10,89.8z M11.9,93.5c11.9,0,23.8,0,35.7,0c-0.4,0.7-0.8,1.4-1.2,2
		c-11.1,0.1-22.2,0-33.2,0C12.7,94.9,12.3,94.2,11.9,93.5z M3.1,18.9c0.5,0,0.9,0.4,0.9,0.9c0,0.5-0.4,0.9-0.9,0.9s-0.9-0.4-0.9-0.9
		C2.2,19.3,2.6,18.9,3.1,18.9z M9.9,19.9l2.7-1l2.4,1l-2.4,0.8L9.9,19.9z M21.6,18.9c0.5,0,0.9,0.4,0.9,0.9c0,0.5-0.4,0.9-0.9,0.9
		c-0.5,0-0.9-0.4-0.9-0.9C20.8,19.3,21.1,18.9,21.6,18.9z M38.4,18.9c0.5,0,0.9,0.4,0.9,0.9c0,0.5-0.4,0.9-0.9,0.9
		c-0.5,0-0.9-0.4-0.9-0.9C37.5,19.3,37.9,18.9,38.4,18.9z M45,19.9l2.7-1l2.4,1l-2.4,0.8L45,19.9z M56.6,18.9c0.5,0,0.9,0.4,0.9,0.9
		c0,0.5-0.4,0.9-0.9,0.9c-0.5,0-0.9-0.4-0.9-0.9C55.8,19.3,56.2,18.9,56.6,18.9z M28.7,19.1h2.6c0.4,0,0.7,0.3,0.7,0.7V20
		c0,0.4-0.3,0.7-0.7,0.7h-2.6c-0.4,0-0.7-0.3-0.7-0.7v-0.2C28,19.4,28.3,19.1,28.7,19.1z M1,14.9H59c0.5,0,0.9,0.4,0.9,0.9l0,0
		c0,0.5-0.4,0.9-0.9,0.9H1c-0.5,0-0.9-0.4-0.9-0.9l0,0C0,15.3,0.4,14.9,1,14.9z M1,22.5H59c0.5,0,0.9,0.4,0.9,0.9l0,0
		c0,0.5-0.4,0.9-0.9,0.9H1C0.4,24.4,0,24,0,23.5l0,0C0,22.9,0.4,22.5,1,22.5z"/>
	<polygon class="st0" points="78.8,25.9 81.7,25.9 81.7,97.9 78.8,97.9 	"/>
</g>
</svg>
