<?xml version="1.0" encoding="UTF-8"?>
<!DOCTYPE svg PUBLIC "-//W3C//DTD SVG 1.1//EN" "http://www.w3.org/Graphics/SVG/1.1/DTD/svg11.dtd">
<!-- Creator: CorelDRAW 2020 (64-Bit) -->
<svg xmlns="http://www.w3.org/2000/svg" xml:space="preserve" width="32px" height="32px" version="1.1" style="shape-rendering:geometricPrecision; text-rendering:geometricPrecision; image-rendering:optimizeQuality; fill-rule:evenodd; clip-rule:evenodd"
viewBox="0 0 21.67 21.67"
 xmlns:xlink="http://www.w3.org/1999/xlink"
 xmlns:xodm="http://www.corel.com/coreldraw/odm/2003">
 <defs>
  <style type="text/css">
   <![CDATA[
    .fil0 {fill:none}
    .fil1 {fill:#373435;fill-rule:nonzero}
   ]]>
  </style>
 </defs>
 <g id="Capa_x0020_1">
  <metadata id="CorelCorpID_0Corel-Layer"/>
  <rect class="fil0" width="21.67" height="21.67"/>
  <path class="fil1" d="M14.62 1.46c0.3,-0.02 0.3,0.26 0.3,0.52 0.06,0.3 0.41,0.28 0.59,0.18 0.18,-0.1 0.18,-0.32 0.16,-0.54 -0.22,0 -0.38,0.1 -0.53,0.26 -0.02,-0.49 -0.16,-0.49 -0.44,-0.61 0.14,-0.08 0.3,-0.18 0.44,-0.28l0.02 -0.3c0.09,0.06 0.29,0.18 0.43,0.18 -0.02,-0.12 -0.16,-0.28 -0.24,-0.4 0.16,-0.02 0.32,-0.04 0.46,-0.1 0.12,-0.06 0.22,-0.18 0.32,-0.26 0.22,-0.18 0.54,-0.1 0.75,0.02 -0.25,0.12 -0.57,0.26 -0.65,0.56 -0.14,0.48 0,0.99 -0.16,1.47 -0.12,0.34 -0.48,0.58 -0.84,0.52 -0.21,-0.04 -0.39,-0.12 -0.59,-0.16 -0.22,0.04 -0.42,0.16 -0.66,0.18 -0.22,-0.02 -0.41,-0.14 -0.61,-0.2 -0.22,0.06 -0.42,0.18 -0.64,0.2 -0.22,-0.02 -0.42,-0.14 -0.65,-0.18 -0.2,0.06 -0.38,0.16 -0.6,0.18 -0.24,0 -0.44,-0.14 -0.64,-0.22 -0.23,0.1 -0.45,0.24 -0.69,0.22 -0.2,-0.04 -0.38,-0.12 -0.58,-0.18 -0.41,0.24 -0.87,0.24 -1.25,-0.02 -0.22,0.1 -0.42,0.22 -0.67,0.22 -0.22,-0.02 -0.4,-0.12 -0.6,-0.2 -0.38,0.22 -0.91,0.32 -1.25,0 -0.44,-0.5 -0.2,-1.21 -0.34,-1.77 -0.04,-0.36 -0.4,-0.5 -0.66,-0.62 0.1,-0.1 0.6,-0.18 0.82,0 0.2,0.22 0.24,0.34 0.75,0.34 -0.1,0.12 -0.25,0.34 -0.21,0.44 0.15,0.02 0.29,-0.12 0.39,-0.22 0.02,0.4 0.14,0.48 0.42,0.62 -0.12,0.08 -0.26,0.15 -0.38,0.23 0.02,0.12 0,0.26 0,0.36 -0.16,-0.16 -0.39,-0.32 -0.59,-0.28 0,0.22 0,0.34 0.12,0.46 0.15,0.16 0.49,0.2 0.61,0 0.14,-0.22 -0.1,-0.62 0.34,-0.62 0.5,0 0.08,0.72 0.56,0.76 0.47,0.04 0.55,-0.4 0.53,-0.56 0,-0.06 -0.04,-0.1 -0.1,-0.08 -0.24,0.08 -0.32,0.18 -0.55,0.3 -0.02,-0.1 -0.02,-0.24 -0.04,-0.34 -0.12,-0.08 -0.26,-0.13 -0.38,-0.21 0.12,-0.08 0.26,-0.16 0.38,-0.24 0,-0.08 0,-0.24 0,-0.32 0.18,0.1 0.37,0.16 0.53,0.18 -0.08,-0.16 -0.14,-0.28 -0.22,-0.42 0.1,-0.04 0.22,-0.08 0.32,-0.1 0.08,-0.12 0.14,-0.24 0.22,-0.36 0.06,0.12 0.12,0.24 0.18,0.36 0.12,0.04 0.24,0.08 0.34,0.12 -0.1,0.16 -0.18,0.3 -0.28,0.46 0.16,-0.06 0.34,-0.14 0.5,-0.2 0,0.12 0,0.22 0,0.34 0.14,0.06 0.29,0.14 0.43,0.2 -0.14,0.09 -0.28,0.17 -0.45,0.25 0,0.08 -0.02,0.24 -0.02,0.3 -0.18,-0.12 -0.3,-0.18 -0.48,-0.28 -0.08,0.18 -0.06,0.42 0.12,0.54 0.18,0.14 0.52,0.14 0.65,-0.08 0.06,-0.22 -0.06,-0.56 0.26,-0.58 0.36,0 0.22,0.38 0.3,0.58 0.26,0.34 0.62,0.12 0.72,-0.02 0.1,-0.14 0.08,-0.38 -0.02,-0.44 -0.22,0.12 -0.34,0.2 -0.56,0.32 0,-0.08 -0.02,-0.26 -0.04,-0.34 -0.12,-0.08 -0.26,-0.16 -0.38,-0.25 0.12,-0.08 0.26,-0.14 0.38,-0.22 0,-0.12 0,-0.22 0,-0.34 0.18,0.06 0.36,0.14 0.54,0.2 -0.08,-0.14 -0.16,-0.32 -0.24,-0.46l0.36 -0.1 0.21 -0.36c0.06,0.12 0.14,0.26 0.2,0.38 0.12,0.04 0.22,0.04 0.34,0.08 -0.1,0.16 -0.26,0.34 -0.24,0.44 0.06,0.04 0.3,-0.12 0.46,-0.2 0,0.08 0,0.28 0,0.36 0.14,0.06 0.28,0.12 0.42,0.18 -0.14,0.08 -0.28,0.15 -0.42,0.23 -0.02,0.1 -0.02,0.22 -0.04,0.32 -0.16,-0.12 -0.3,-0.2 -0.46,-0.3 -0.06,0.08 -0.06,0.4 0.1,0.56 0.14,0.14 0.4,0.14 0.54,0.02 0.18,-0.2 0.02,-0.62 0.34,-0.68 0.37,-0.02 0.29,0.4 0.37,0.64 0.1,0.18 0.46,0.18 0.6,0.04 0.14,-0.14 0.16,-0.42 0.1,-0.54 -0.22,0.1 -0.38,0.18 -0.58,0.3 0,-0.08 0,-0.22 -0.02,-0.3 -0.12,-0.08 -0.28,-0.16 -0.41,-0.25 0.13,-0.08 0.27,-0.14 0.39,-0.22 0,-0.08 0,-0.24 0,-0.32 0.18,0.04 0.48,0.2 0.52,0.14 0.02,-0.04 -0.14,-0.28 -0.2,-0.44 0.1,-0.02 0.2,-0.06 0.32,-0.1 0.06,-0.12 0.14,-0.24 0.2,-0.36 0.06,0.12 0.16,0.26 0.22,0.38 0.13,0.04 0.21,0.04 0.33,0.08 -0.08,0.16 -0.29,0.38 -0.23,0.44 0.07,0.06 0.29,-0.1 0.45,-0.18 0,0.08 0,0.28 0,0.36 0.14,0.06 0.3,0.14 0.44,0.2l-0.46 0.23 -0.02 0.3c-0.16,-0.1 -0.32,-0.2 -0.49,-0.3 -0.04,0.16 -0.02,0.48 0.21,0.6 0.18,0.12 0.44,0.04 0.56,-0.16 0,-0.18 -0.06,-0.52 0.24,-0.54l0 0zm-8.64 16.22l0 0c-0.02,0.77 0.49,1.43 1.09,1.84 0.93,0.62 2.07,0.82 3.16,0.92 1.23,0.1 2.52,0.08 3.67,-0.44 0.76,-0.34 1.41,-0.97 1.67,-1.77 0.16,-0.47 0.12,-0.95 0.12,-1.41 0,-3.47 0,-6.93 0,-10.39 -3.24,0 -6.49,0 -9.73,0 0.02,3.76 0.02,7.51 0.02,11.25l0 0zm-1.18 -12.4c4.02,0 8.03,0 12.06,0 0,4.17 0,8.34 0,12.5 0,0.97 -0.49,1.92 -1.21,2.54 -1.13,0.95 -2.64,1.25 -4.07,1.33 -1.63,0.08 -3.36,-0.04 -4.81,-0.87 -1.13,-0.64 -1.97,-1.87 -1.97,-3.2 0,-4.1 0,-8.21 0,-12.3l0 0zm5.77 0.14l0 0.24c-0.08,0.08 -0.16,0.14 -0.24,0.22 0.06,0.27 0.2,0.43 0.47,0.43 0.26,0.02 0.42,-0.22 0.5,-0.43 -0.08,-0.08 -0.18,-0.16 -0.26,-0.24l0 -0.22 -0.47 0 0 0zm-5.43 5.42l0 0.24c-0.08,0.08 -0.16,0.14 -0.24,0.22 0.06,0.26 0.2,0.42 0.46,0.42 0.26,0.02 0.42,-0.22 0.5,-0.42 -0.08,-0.08 -0.18,-0.16 -0.26,-0.24l0 -0.22 -0.46 0 0 0zm10.91 0l0 0.24c-0.08,0.08 -0.16,0.14 -0.24,0.22 0.06,0.26 0.2,0.42 0.46,0.42 0.26,0.02 0.43,-0.22 0.51,-0.42 -0.08,-0.08 -0.19,-0.16 -0.27,-0.24l0 -0.22 -0.46 0 0 0zm-5.9 -1.71c0.08,0 0.24,0 0.32,0 0,0.06 0,0.16 0,0.22 0.1,0 0.18,0 0.29,0 0,-0.06 0,-0.16 0,-0.22 0.08,0 0.24,0 0.32,0 0,0.06 0,0.16 0,0.22 0.06,0 0.2,0 0.26,0 0,-0.06 0,-0.16 0,-0.22 0.08,0 0.22,0 0.3,0 0,0.14 0,0.28 0,0.44 -0.5,0 -0.99,0 -1.49,0 0,-0.16 0,-0.3 0,-0.44l0 0zm-1.55 0.42c0.06,0 0.2,0 0.26,0 0,0.06 0,0.16 0,0.2 0.06,0 0.18,0 0.24,0 0,-0.06 0,-0.16 0,-0.2 0.06,0 0.21,0 0.29,0 0,0.06 0,0.16 0,0.2 0.06,0 0.16,0 0.22,0 0,-0.06 0,-0.16 0,-0.2 0.06,0 0.2,0 0.26,0 0,0.14 0,0.28 0,0.42 -0.42,0 -0.85,0 -1.27,0 0,-0.16 0,-0.3 0,-0.42l0 0zm0.14 6.12l0 0c0,0.06 0,0.18 0,0.22 1.49,0 2.98,0 4.47,0 0,-0.06 0,-0.18 0,-0.22 -1.49,0 -2.98,0 -4.47,0zm2.78 -1.09l0 0c0,0.24 0,0.47 0,0.71 0.5,0 0.99,0 1.49,0 -0.12,-0.24 -0.22,-0.47 -0.34,-0.71 -0.36,0 -0.77,0 -1.15,0l0 0zm-2.29 0l0 0c-0.13,0.24 -0.25,0.49 -0.39,0.71 0.53,0 1.03,0 1.55,0 0,-0.24 0,-0.49 0,-0.71 -0.38,0 -0.78,0 -1.16,0l0 0zm0.16 -1.37l0 0c-0.04,0.33 -0.1,0.67 -0.14,0.99l1.06 0c0.1,-0.16 0.32,-0.3 0.61,-0.32 0.28,0 0.46,0.08 0.64,0.32l1.09 0c-0.06,-0.32 -0.12,-0.66 -0.2,-0.99 -1.01,0 -2.04,0 -3.06,0l0 0zm-0.02 -1.12l0 0c0,0.24 0,0.46 0,0.7 1.02,0 2.05,0 3.1,0 0,-0.24 0,-0.46 0,-0.7 -1.03,0 -2.06,0 -3.1,0zm1.26 -0.97l0 0c0,0.12 0,0.22 0,0.34 -0.2,0 -0.4,0 -0.6,0 0,-0.08 0,-0.26 0,-0.34 -0.22,0 -0.42,0 -0.64,0 0,0.22 0,0.46 0,0.68 1.02,0 2.07,0 3.1,0 0,-0.22 0,-0.46 0,-0.68 -0.2,0 -0.41,0 -0.63,0 0,0.08 0,0.26 0,0.34 -0.2,0 -0.4,0 -0.58,0 0,-0.12 0,-0.22 0,-0.34 -0.22,0 -0.44,0 -0.65,0l0 0zm-0.46 -1.27c0.5,0 0.99,0 1.49,0 0,0.34 0,0.71 0,1.05 0.06,0 0.2,0 0.28,0 0,-0.2 0,-0.42 0,-0.63 0.41,0 0.81,0 1.21,0 0,0.37 0,0.73 0,1.09 0.1,0 0.22,0 0.32,0 0,0.08 0,0.22 0,0.3 -0.1,0 -0.2,0 -0.32,0 -0.02,0.77 0,1.51 -0.02,2.28 -0.08,0.56 0.38,0.99 0.63,1.47 0.2,0.28 0.14,0.62 0.16,0.95 -1.98,0 -3.93,0 -5.9,0 0.02,-0.31 -0.06,-0.63 0.1,-0.91 0.16,-0.36 0.4,-0.71 0.52,-1.11 0.02,-0.88 -0.02,-1.77 -0.02,-2.66 -0.08,0 -0.24,0 -0.3,0 0,-0.08 0,-0.24 0,-0.3 0.08,0 0.22,0 0.3,0 0,-0.36 0,-0.72 0,-1.09 0.42,0 0.85,0 1.27,0 0,0.23 0,0.45 0,0.69 0.08,0 0.22,0 0.3,0 -0.02,-0.38 -0.02,-0.75 -0.02,-1.13l0 0zm1.73 -0.26c0.06,0 0.2,0 0.26,0 0,0.06 0,0.16 0,0.2 0.07,0 0.19,0 0.25,0 0,-0.06 0,-0.16 0,-0.2 0.06,0 0.2,0 0.26,0 0,0.06 0,0.16 0,0.2 0.06,0 0.16,0 0.22,0 0,-0.06 0,-0.16 0,-0.2 0.06,0 0.2,0 0.26,0 0,0.14 0,0.28 0,0.42 -0.42,0 -0.84,0 -1.25,0 0,-0.14 0,-0.28 0,-0.42zm-5.74 7.35c3.13,0 6.23,0 9.35,0 -0.16,0.24 -0.3,0.5 -0.47,0.74 -2.83,0 -5.65,0.02 -8.49,-0.02 -0.12,-0.22 -0.24,-0.48 -0.39,-0.72l0 0zm0.65 1.15c2.68,0 5.35,0 8.03,0 -0.08,0.1 -0.16,0.22 -0.24,0.32 -2.54,0 -5.07,0 -7.61,0 -0.06,-0.1 -0.12,-0.2 -0.18,-0.32zm0.38 0.74c2.4,0 4.79,0 7.19,0 -0.08,0.14 -0.16,0.28 -0.24,0.4 -2.24,0.02 -4.47,0 -6.69,0 -0.1,-0.12 -0.18,-0.26 -0.26,-0.4zm-1.77 -15.02c0.1,0 0.18,0.08 0.18,0.18 0,0.1 -0.08,0.18 -0.18,0.18 -0.1,0 -0.18,-0.08 -0.18,-0.18 0,-0.1 0.08,-0.18 0.18,-0.18zm1.37 0.2l0.54 -0.2 0.49 0.2 -0.49 0.16 -0.54 -0.16zm2.35 -0.2c0.11,0 0.19,0.08 0.19,0.18 0,0.1 -0.08,0.18 -0.19,0.18 -0.1,0 -0.18,-0.08 -0.18,-0.18 0.02,-0.1 0.08,-0.18 0.18,-0.18zm3.39 0c0.1,0 0.18,0.08 0.18,0.18 0,0.1 -0.08,0.18 -0.18,0.18 -0.1,0 -0.18,-0.08 -0.18,-0.18 0,-0.1 0.08,-0.18 0.18,-0.18zm1.33 0.2l0.54 -0.2 0.48 0.2 -0.48 0.16 -0.54 -0.16zm2.33 -0.2c0.1,0 0.18,0.08 0.18,0.18 0,0.1 -0.08,0.18 -0.18,0.18 -0.1,0 -0.18,-0.08 -0.18,-0.18 0.02,-0.1 0.1,-0.18 0.18,-0.18zm-5.62 0.04l0.53 0c0.08,0 0.14,0.06 0.14,0.14l0 0.04c0,0.08 -0.06,0.14 -0.14,0.14l-0.53 0c-0.08,0 -0.14,-0.06 -0.14,-0.14l0 -0.04c0,-0.08 0.06,-0.14 0.14,-0.14zm-5.57 -0.84l11.67 0c0.11,0 0.19,0.08 0.19,0.18l0 0c0,0.1 -0.08,0.18 -0.19,0.18l-11.67 0c-0.1,0 -0.18,-0.08 -0.18,-0.18l0 0c-0.02,-0.1 0.06,-0.18 0.18,-0.18zm0 1.53l11.67 0c0.11,0 0.19,0.08 0.19,0.18l0 0c0,0.1 -0.08,0.18 -0.19,0.18l-11.67 0c-0.12,0.02 -0.2,-0.06 -0.2,-0.16l0 0c0,-0.12 0.08,-0.2 0.2,-0.2z"/>
 </g>
</svg>
